<svg width="172" height="72" viewBox="0 0 172 72" fill="none" xmlns="http://www.w3.org/2000/svg">
<path fill-rule="evenodd" clip-rule="evenodd" d="M4.224 15.4V49H27.36V41.8H12.384V15.4H4.224ZM33.9765 47.752C36.0565 48.904 38.4245 49.48 41.0805 49.48C43.7365 49.48 46.0885 48.904 48.1365 47.752C50.2165 46.6 51.8485 45.032 53.0325 43.048C53.5994 42.098 54.0306 41.082 54.3261 40H46.0648C45.5747 40.8235 44.9372 41.4875 44.1525 41.992C43.2565 42.568 42.2325 42.856 41.0805 42.856C39.9285 42.856 38.8885 42.568 37.9605 41.992C37.1758 41.4875 36.5383 40.8235 36.0482 40H27.7869C28.0824 41.082 28.5136 42.098 29.0805 43.048C30.2965 45.032 31.9285 46.6 33.9765 47.752ZM27.4652 34C27.7142 32.3312 28.2527 30.8032 29.0805 29.416C30.2965 27.432 31.9285 25.864 33.9765 24.712C36.0565 23.56 38.4245 22.984 41.0805 22.984C43.7365 22.984 46.0885 23.56 48.1365 24.712C50.2165 25.864 51.8485 27.432 53.0325 29.416C53.8604 30.8032 54.3988 32.3312 54.6478 34H46.7255C46.6101 33.5878 46.4564 33.1958 46.2645 32.824C45.7525 31.8 45.0485 31 44.1525 30.424C43.2565 29.848 42.2325 29.56 41.0805 29.56C39.9285 29.56 38.8885 29.848 37.9605 30.424C37.0645 31 36.3605 31.8 35.8485 32.824C35.6566 33.1958 35.5029 33.5878 35.3875 34H27.4652ZM56.9171 40C56.9902 41.8287 57.3373 43.4207 57.9585 44.776C58.6945 46.312 59.7185 47.496 61.0305 48.328C62.3745 49.128 63.9905 49.528 65.8785 49.528C67.2865 49.528 68.6145 49.256 69.8625 48.712C71.1105 48.136 72.1825 47.384 73.0785 46.456C73.2957 46.2233 73.4978 45.9832 73.6849 45.7355L73.8945 49H81.1425V40H73.2503C73.2031 40.1723 73.1459 40.3403 73.0785 40.504C72.8545 41.016 72.5345 41.48 72.1185 41.896C71.7345 42.28 71.2545 42.584 70.6785 42.808C70.1345 43.032 69.5265 43.144 68.8545 43.144C67.9585 43.144 67.1905 42.952 66.5505 42.568C65.9105 42.152 65.4305 41.576 65.1105 40.84C64.9967 40.5782 64.9031 40.2982 64.8298 40H56.9171ZM64.6305 34H56.9025V23.512H64.6305V34ZM73.4145 34H81.1425V23.512H73.4145V34ZM85.7794 40V49H93.4594V40H85.7794ZM93.4594 34H85.7794V23.512H93.4594V34ZM86.2114 17.464C87.0434 18.136 88.1794 18.472 89.6194 18.472C91.0274 18.472 92.1314 18.104 92.9314 17.368C93.7634 16.632 94.1794 15.672 94.1794 14.488C94.1794 13.24 93.7794 12.28 92.9794 11.608C92.1794 10.904 91.0594 10.552 89.6194 10.552C88.2114 10.552 87.0914 10.92 86.2594 11.656C85.4274 12.392 85.0114 13.336 85.0114 14.488C85.0114 15.768 85.4114 16.76 86.2114 17.464ZM100.004 48.28C101.924 49.08 104.132 49.48 106.628 49.48C108.675 49.48 110.5 49.128 112.1 48.424C113.7 47.688 114.948 46.696 115.844 45.448C116.771 44.168 117.236 42.712 117.236 41.08C117.236 40.248 117.107 39.48 116.852 38.776C116.596 38.04 116.212 37.4 115.7 36.856C115.06 36.152 114.196 35.544 113.107 35.032C112.02 34.52 110.724 34.056 109.22 33.64C108.004 33.288 107.044 33 106.34 32.776C105.635 32.52 105.124 32.296 104.804 32.104C104.484 31.912 104.228 31.672 104.035 31.384C103.876 31.096 103.796 30.792 103.796 30.472C103.796 30.152 103.86 29.88 103.988 29.656C104.116 29.4 104.308 29.192 104.563 29.032C104.82 28.84 105.124 28.712 105.476 28.648C105.86 28.552 106.292 28.504 106.771 28.504C107.411 28.504 108.116 28.632 108.883 28.888C109.652 29.144 110.388 29.496 111.091 29.944C111.827 30.36 112.484 30.84 113.06 31.384L117.091 26.872C116.228 26.072 115.236 25.384 114.116 24.808C113.028 24.232 111.843 23.784 110.563 23.464C109.284 23.144 107.939 22.984 106.532 22.984C105.22 22.984 103.939 23.176 102.691 23.56C101.476 23.912 100.388 24.44 99.4275 25.144C98.4995 25.848 97.7475 26.68 97.1715 27.64C96.6275 28.6 96.3555 29.672 96.3555 30.856C96.3555 31.88 96.5315 32.808 96.8835 33.64C97.2355 34.44 97.7315 35.176 98.3715 35.848C99.0755 36.552 99.9715 37.176 101.06 37.72C102.18 38.232 103.492 38.68 104.995 39.064C106.051 39.352 106.916 39.608 107.588 39.832C108.259 40.056 108.74 40.248 109.028 40.408C109.604 40.76 109.892 41.256 109.892 41.896C109.892 42.216 109.827 42.504 109.7 42.76C109.572 42.984 109.38 43.192 109.124 43.384C108.9 43.544 108.612 43.672 108.259 43.768C107.908 43.864 107.507 43.912 107.06 43.912C105.939 43.912 104.756 43.688 103.507 43.24C102.259 42.76 101.14 42.024 100.147 41.032L95.4915 45.064C96.6115 46.408 98.1155 47.48 100.004 48.28ZM140.968 48.232C143.112 49.064 145.448 49.48 147.976 49.48C149.608 49.48 151.224 49.288 152.824 48.904C154.456 48.488 155.928 47.928 157.24 47.224C158.584 46.52 159.656 45.72 160.456 44.824L156.52 38.584C155.912 39.224 155.208 39.8 154.408 40.312C153.64 40.792 152.792 41.176 151.864 41.464C150.936 41.752 149.96 41.896 148.936 41.896C147.432 41.896 146.056 41.672 144.808 41.224C143.592 40.776 142.552 40.12 141.688 39.256C140.824 38.392 140.152 37.368 139.672 36.184C139.192 34.968 138.952 33.624 138.952 32.152C138.952 30.648 139.192 29.288 139.672 28.072C140.152 26.856 140.808 25.832 141.64 25C142.504 24.136 143.496 23.48 144.616 23.032C145.768 22.552 146.984 22.312 148.264 22.312C149.288 22.312 150.248 22.456 151.144 22.744C152.04 23.032 152.856 23.448 153.592 23.992C154.36 24.504 155.08 25.112 155.752 25.816L160.744 20.104C159.784 18.984 158.632 18.024 157.288 17.224C155.976 16.392 154.552 15.768 153.016 15.352C151.48 14.936 149.912 14.728 148.312 14.728C145.752 14.728 143.384 15.16 141.208 16.024C139.064 16.888 137.192 18.104 135.592 19.672C134.024 21.208 132.792 23.032 131.896 25.144C131 27.256 130.552 29.56 130.552 32.056C130.552 34.616 130.968 36.968 131.8 39.112C132.664 41.224 133.88 43.064 135.448 44.632C137.016 46.168 138.856 47.368 140.968 48.232ZM162.248 48.424C162.984 49.16 164.008 49.528 165.32 49.528C166.568 49.528 167.576 49.128 168.344 48.328C169.112 47.528 169.496 46.504 169.496 45.256C169.496 43.88 169.128 42.824 168.392 42.088C167.656 41.32 166.632 40.936 165.32 40.936C164.104 40.936 163.112 41.336 162.344 42.136C161.576 42.936 161.192 43.976 161.192 45.256C161.192 46.632 161.544 47.688 162.248 48.424Z" fill="black"/>
<path fill-rule="evenodd" clip-rule="evenodd" d="M17.6618 64.9983C17.1332 65.1582 16.8342 65.7163 16.994 66.2449C17.1538 66.7736 17.7119 67.0726 18.2406 66.9128C37.0183 61.2358 49.5282 55.4242 57.431 46.887C59.3975 44.7627 61.0709 42.4785 62.4828 40H60.1592C58.9473 41.9757 57.5542 43.8098 55.9633 45.5284C48.4495 53.6454 36.3952 59.3348 17.6618 64.9983ZM63.122 34H65.2616C67.6172 27.6283 68.7381 20.1084 68.9996 11.0288C69.0155 10.4767 68.5808 10.0163 68.0288 10.0004C67.4767 9.98452 67.0163 10.4192 67.0004 10.9712C66.7326 20.2688 65.5546 27.7637 63.122 34Z" fill="black"/>
<rect x="129" y="12" width="8" height="8" stroke="black" stroke-width="2"/>
<rect x="64" y="2" width="8" height="8" stroke="black" stroke-width="2"/>
<circle cx="18" cy="66" r="4.75" stroke="black" stroke-width="0.5"/>
<path d="M18.0001 65.9998C54.4683 16.5544 80.8715 10.2017 129 15.9999" stroke="black" stroke-width="2" stroke-linecap="round"/>
<circle cx="18" cy="66" r="2" fill="black"/>
</svg>
